<svg width="138" height="138" xmlns="http://www.w3.org/2000/svg">
 <!-- Created with Method Draw - http://github.com/duopixel/Method-Draw/ -->

 <g>
  <title>background</title>
  <rect fill="#898989" id="canvas_background" height="140" width="140" y="-1" x="-1"/>
  <g display="none" overflow="visible" y="0" x="0" height="100%" width="100%" id="canvasGrid">
   <rect fill="url(#gridpattern)" stroke-width="0" y="2" x="2" height="400" width="580"/>
  </g>
 </g>
 <g>
  <title>Layer 1</title>
  <g stroke="null" transform="matrix(0.49311993875227833,0,0,0.4831434515270919,-523.0874642177799,-324.8411176147863) " id="svg_69"/>
  <g stroke="null" transform="matrix(0.49311993875227833,0,0,0.4831434515270919,-523.0874642177799,-324.8411176147863) " id="svg_70"/>
  <g stroke="null" transform="matrix(0.49311993875227833,0,0,0.4831434515270919,-523.0874642177799,-324.8411176147863) " id="svg_71"/>
  <g stroke="null" transform="matrix(0.49311993875227833,0,0,0.4831434515270919,-523.0874642177799,-324.8411176147863) " id="svg_72"/>
  <g stroke="null" transform="matrix(0.49311993875227833,0,0,0.4831434515270919,-523.0874642177799,-324.8411176147863) " id="svg_73"/>
  <g stroke="null" transform="matrix(0.49311993875227833,0,0,0.4831434515270919,-523.0874642177799,-324.8411176147863) " id="svg_74"/>
  <g stroke="null" transform="matrix(0.49311993875227833,0,0,0.4831434515270919,-523.0874642177799,-324.8411176147863) " id="svg_75"/>
  <g stroke="null" transform="matrix(0.49311993875227833,0,0,0.4831434515270919,-523.0874642177799,-324.8411176147863) " id="svg_76"/>
  <g stroke="null" transform="matrix(0.49311993875227833,0,0,0.4831434515270919,-523.0874642177799,-324.8411176147863) " id="svg_77"/>
  <g stroke="null" transform="matrix(0.49311993875227833,0,0,0.4831434515270919,-523.0874642177799,-324.8411176147863) " id="svg_78"/>
  <g stroke="null" transform="matrix(0.49311993875227833,0,0,0.4831434515270919,-523.0874642177799,-324.8411176147863) " id="svg_79"/>
  <g stroke="null" transform="matrix(0.49311993875227833,0,0,0.4831434515270919,-523.0874642177799,-324.8411176147863) " id="svg_80"/>
  <g stroke="null" transform="matrix(0.49311993875227833,0,0,0.4831434515270919,-523.0874642177799,-324.8411176147863) " id="svg_81"/>
  <g stroke="null" transform="matrix(0.49311993875227833,0,0,0.4831434515270919,-523.0874642177799,-324.8411176147863) " id="svg_82"/>
  <g stroke="null" transform="matrix(0.49311993875227833,0,0,0.4831434515270919,-523.0874642177799,-324.8411176147863) " id="svg_83"/>
  <g stroke="null" id="svg_85">
   <g stroke="null" transform="matrix(0.4236166006408825,0,0,0.4155902186739741,-417.0978137255049,-240.236137856916) " id="svg_64">
    <g stroke="null" id="svg_66">
     <path stroke="null" fill="#F3D8B6" d="m1229.246287,813.999686c-18.667,-6.681 -51.458,-11.736 -51.458,-81.376l-29.23,0l-5.002,0l-29.23,0c0,69.64 -32.791,74.695 -51.458,81.376c0,47.368 68.832,48.824 80.688,53.239l0,1.537c0,0 0.922,-0.188 2.501,-0.68c1.579,0.492 2.501,0.68 2.501,0.68l0,-1.537c11.856,-4.414 80.688,-5.871 80.688,-53.239z" id="svg_67"/>
    </g>
    <path stroke="null" fill="#EEC8A2" d="m1177.788287,732.624686l-29.23,0l-2.417,0l0,135.497c1.526,0.472 2.417,0.654 2.417,0.654l0,-1.537c11.856,-4.415 80.688,-5.871 80.688,-53.239c-18.667,-6.68 -51.458,-11.735 -51.458,-81.375z" id="svg_65"/>
   </g>
   <g stroke="null" transform="matrix(0.4236166006408825,0,0,0.4155902186739741,-417.0978137255049,-240.236137856916) " id="svg_60">
    <g stroke="null" id="svg_62">
     <path stroke="null" fill="#F3DBC4" d="m1146.059287,754.786686c-27.454,0 -48.409,-23.119 -57.799,-40.456s-15.888,-79.445 4.34,-106.897c19.808,-26.883 53.459,-13.838 53.459,-13.838s33.649,-13.045 53.458,13.838c20.226,27.452 13.726,89.56 4.335,106.897c-9.392,17.337 -30.344,40.456 -57.793,40.456z" id="svg_63"/>
    </g>
    <path stroke="null" fill="#EDCEAE" d="m1199.518287,607.433686c-19.258,-26.133 -51.588,-14.537 -53.377,-13.869l0,161.22c27.408,-0.046 48.329,-23.135 57.712,-40.454c9.39,-17.337 15.891,-79.444 -4.335,-106.897z" id="svg_61"/>
   </g>
   <g stroke="null" transform="matrix(0.4236166006408825,0,0,0.4155902186739741,-417.0978137255049,-240.236137856916) " id="svg_57">
    <ellipse stroke="null" fill="#EDCEAE" ry="10.048" rx="17.187" cy="1229.311422" cx="25.74735" transform="matrix(0.3543,-0.9351,0.9351,0.3543,49.5754,275.6114) " id="svg_59"/>
    <ellipse stroke="null" fill="#F3DBC4" ry="10.048" rx="17.187" cy="-610.816926" cx="995.841076" transform="matrix(0.3543,0.9351,-0.9351,0.3543,159.8797,-27.7212) " id="svg_58"/>
   </g>
   <path stroke="null" fill="#8105c9" d="m86.180428,41.122051l-11.72952,0c-0.501986,0 -0.998041,0.100988 -1.453429,0.296316l-4.606407,1.609581l-4.606407,-1.609581c-0.455388,-0.195327 -0.951443,-0.296316 -1.453429,-0.296316l-11.729096,0c-2.333704,0 -3.139423,3.937302 -3.139423,3.937302c0,5.208177 3.89346,9.430573 10.063436,9.430573c3.762563,0 7.374741,-3.923172 9.594492,-7.098697l2.5417,0c2.219751,3.175525 5.832353,7.098697 9.594492,7.098697c6.169976,0 10.063436,-4.222397 10.063436,-9.430573c-0.000424,0 -0.805719,-3.937302 -3.139846,-3.937302z" id="svg_56"/>
   <path stroke="null" fill="#61039b" d="m86.180428,41.122051l-11.72952,0c-0.501986,0 -0.998041,0.100988 -1.453429,0.296316l-4.571247,1.597113l0,4.375749l1.23569,0c2.219751,3.175525 5.832353,7.098697 9.594492,7.098697c6.169976,0 10.063436,-4.222397 10.063436,-9.430573c0,0 -0.805295,-3.937302 -3.139423,-3.937302z" id="svg_54"/>
   <g stroke="null" transform="matrix(0.4236166006408825,0,0,0.4155902186739741,-417.0978137255049,-240.236137856916) " id="svg_50">
    <path stroke="null" fill="#333333" d="m1202.450287,603.279686c-2.16,0.019 -25.469,-13.121 -41.382,-16.355c-18.766,-3.814 -18.777,-0.529 -26.02,1.516c-16.835,-12.349 -58.504,24.651 -58.504,32.295c0,37.112 -2.768,40.697 1.715,53.646s8.466,23.407 8.466,23.407s2.988,9.819 2.988,-10.697c0,-55.843 2.805,-3.574 100.009,-46.537c19.157,-8.467 9.145,19.96 11.137,40.379s2.988,16.854 2.988,16.854s3.984,-10.458 8.466,-23.407c4.483,-12.948 9.489,-71.271 -9.863,-71.101z" id="svg_52"/>
    <path stroke="null" fill="#333333" d="m1202.450287,603.279686c-2.16,0.019 -25.469,-13.121 -41.382,-16.355c-7.314,-1.487 -11.773,-1.892 -14.928,-1.716l0,70.406c11.865,-2.755 26.208,-7.381 43.581,-15.06c19.157,-8.467 9.145,19.96 11.137,40.379c1.992,20.419 2.988,16.854 2.988,16.854s3.984,-10.458 8.466,-23.407c4.484,-12.948 9.49,-71.271 -9.862,-71.101z" id="svg_51"/>
   </g>
   <rect stroke="null" transform="matrix(0.4236166006408825,0,0,0.4155902186739741,-417.0978137255049,-240.236137856916) " fill="#5b0093" height="100.325" width="114.108" y="809.09169" x="1089.003273" id="svg_49"/>
   <rect stroke="null" transform="matrix(0.4236166006408825,0,0,0.4155902186739741,-417.0978137255049,-240.236137856916) " fill="#4e027c" height="100.325" width="56.971" y="809.09169" x="1146.141273" id="svg_48"/>
   <path stroke="null" fill="#4c4c4c" d="m34.541141,91.387688c2.559492,-1.513164 8.341011,-3.087835 11.371564,-3.821768c2.52179,-0.618398 1.476727,6.162787 2.407837,14.862753c0.964575,9.008749 8.169446,35.33639 8.169446,35.33639l-39.149375,0l0,-16.906626c0,-12.646826 7.361186,-23.673266 17.200528,-29.470749z" id="svg_46"/>
   <path stroke="null" fill="#666464" d="m51.829358,83.546748c0,0 -13.747206,3.532932 -16.810801,7.740783c-3.063595,4.207435 -4.901668,9.918061 -4.901668,9.918061l11.947683,4.207435l-8.84808,8.454767l11.924807,23.840748l11.349112,0c0,0 -8.560021,-30.111174 -8.756155,-40.724517c-0.06439,-3.477243 4.095102,-13.437279 4.095102,-13.437279z" id="svg_45"/>
   <path stroke="null" fill="#424242" d="m102.241004,91.387688c-2.559492,-1.513164 -8.341011,-3.087835 -11.371564,-3.821768c-2.52179,-0.618398 -1.476727,6.162787 -2.407837,14.862753c-0.964575,9.008749 -8.169446,35.33639 -8.169446,35.33639l39.149799,0l0,-16.906626c0,-12.646826 -7.361186,-23.673266 -17.200952,-29.470749z" id="svg_43"/>
   <path stroke="null" fill="#545454" d="m84.953211,83.546748c0,0 13.747206,3.532932 16.810801,7.740783c3.063595,4.207435 4.901668,9.918061 4.901668,9.918061l-11.947683,4.207435l8.84808,8.454767l-11.924807,23.840748l-11.349112,0c0,0 8.560021,-30.111174 8.755732,-40.724517c0.06439,-3.477243 -4.094678,-13.437279 -4.094678,-13.437279z" id="svg_42"/>
   <g stroke="null" transform="matrix(0.4236166006408825,0,0,0.4155902186739741,-417.0978137255049,-240.236137856916) " id="svg_37">
    <ellipse stroke="null" fill="#EDCEAE" ry="10.048" rx="17.187" cy="1229.311422" cx="25.74735" transform="matrix(0.3543,-0.9351,0.9351,0.3543,49.5754,275.6114) " id="svg_39"/>
    <ellipse stroke="null" fill="#F3DBC4" ry="10.048" rx="17.187" cy="-610.816926" cx="995.841076" transform="matrix(0.3543,0.9351,-0.9351,0.3543,159.8797,-27.7212) " id="svg_38"/>
   </g>
  </g>
 </g>
</svg>